<mxfile host="app.diagrams.net" modified="2023-05-31T03:13:57.935Z" agent="Mozilla/5.0 (Windows NT 10.0; Win64; x64) AppleWebKit/537.36 (KHTML, like Gecko) Chrome/113.0.0.0 Safari/537.36" etag="hTFQ_JCJlQp-75rHau1Q" version="21.3.5" type="github">
  <diagram name="Page-1" id="RAzZtE-VEiVeNqtvT4qI">
    <mxGraphModel dx="1434" dy="760" grid="1" gridSize="10" guides="1" tooltips="1" connect="1" arrows="1" fold="1" page="1" pageScale="1" pageWidth="900" pageHeight="1600" math="0" shadow="0">
      <root>
        <mxCell id="0" />
        <mxCell id="1" parent="0" />
        <mxCell id="3CsVYzoKzDyqNIvDipbE-6" value="SSD" style="shape=ext;double=1;rounded=1;whiteSpace=wrap;html=1;align=left;" vertex="1" parent="1">
          <mxGeometry x="280" y="390" width="245" height="60" as="geometry" />
        </mxCell>
        <mxCell id="3CsVYzoKzDyqNIvDipbE-5" value="PM" style="shape=ext;double=1;rounded=1;whiteSpace=wrap;html=1;labelPosition=center;verticalLabelPosition=middle;align=left;verticalAlign=middle;" vertex="1" parent="1">
          <mxGeometry x="280" y="270" width="245" height="120" as="geometry" />
        </mxCell>
        <mxCell id="3CsVYzoKzDyqNIvDipbE-4" value="DRAM" style="shape=ext;double=1;rounded=1;whiteSpace=wrap;html=1;labelPosition=center;verticalLabelPosition=middle;align=left;verticalAlign=middle;" vertex="1" parent="1">
          <mxGeometry x="280" y="150" width="245" height="120" as="geometry" />
        </mxCell>
        <mxCell id="yFJTro044zv2ZczdaH6C-33" value="3" style="edgeStyle=orthogonalEdgeStyle;rounded=0;orthogonalLoop=1;jettySize=auto;html=1;exitX=1;exitY=0.25;exitDx=0;exitDy=0;entryX=1;entryY=0.25;entryDx=0;entryDy=0;" parent="1" source="yFJTro044zv2ZczdaH6C-12" target="yFJTro044zv2ZczdaH6C-32" edge="1">
          <mxGeometry relative="1" as="geometry">
            <Array as="points">
              <mxPoint x="540" y="230" />
              <mxPoint x="540" y="290" />
            </Array>
          </mxGeometry>
        </mxCell>
        <mxCell id="yFJTro044zv2ZczdaH6C-12" value="共享缓存" style="rounded=1;whiteSpace=wrap;html=1;dashed=1;" parent="1" vertex="1">
          <mxGeometry x="325" y="220" width="150" height="40" as="geometry" />
        </mxCell>
        <mxCell id="yFJTro044zv2ZczdaH6C-29" value="2" style="edgeStyle=orthogonalEdgeStyle;rounded=0;orthogonalLoop=1;jettySize=auto;html=1;exitX=0;exitY=0.5;exitDx=0;exitDy=0;entryX=0;entryY=0.5;entryDx=0;entryDy=0;" parent="1" source="yFJTro044zv2ZczdaH6C-14" target="yFJTro044zv2ZczdaH6C-12" edge="1">
          <mxGeometry relative="1" as="geometry">
            <Array as="points">
              <mxPoint x="260" y="350" />
              <mxPoint x="260" y="240" />
            </Array>
          </mxGeometry>
        </mxCell>
        <mxCell id="yFJTro044zv2ZczdaH6C-35" value="5" style="edgeStyle=orthogonalEdgeStyle;rounded=0;orthogonalLoop=1;jettySize=auto;html=1;exitX=1;exitY=0.5;exitDx=0;exitDy=0;entryX=1;entryY=0.5;entryDx=0;entryDy=0;" parent="1" source="yFJTro044zv2ZczdaH6C-14" target="yFJTro044zv2ZczdaH6C-36" edge="1">
          <mxGeometry relative="1" as="geometry">
            <Array as="points">
              <mxPoint x="540" y="350" />
              <mxPoint x="540" y="415" />
            </Array>
          </mxGeometry>
        </mxCell>
        <mxCell id="yFJTro044zv2ZczdaH6C-14" value="共享持久化内存" style="rounded=1;whiteSpace=wrap;html=1;shadow=0;glass=0;" parent="1" vertex="1">
          <mxGeometry x="325" y="330" width="155" height="40" as="geometry" />
        </mxCell>
        <mxCell id="yFJTro044zv2ZczdaH6C-34" value="4" style="edgeStyle=orthogonalEdgeStyle;rounded=0;orthogonalLoop=1;jettySize=auto;html=1;exitX=1;exitY=0.5;exitDx=0;exitDy=0;entryX=1;entryY=0.25;entryDx=0;entryDy=0;" parent="1" source="yFJTro044zv2ZczdaH6C-32" target="yFJTro044zv2ZczdaH6C-14" edge="1">
          <mxGeometry relative="1" as="geometry">
            <Array as="points">
              <mxPoint x="540" y="300" />
              <mxPoint x="540" y="340" />
            </Array>
          </mxGeometry>
        </mxCell>
        <mxCell id="yFJTro044zv2ZczdaH6C-32" value="日志" style="rounded=1;whiteSpace=wrap;html=1;fillStyle=hatch;fillColor=default;shadow=0;glass=0;" parent="1" vertex="1">
          <mxGeometry x="325" y="280" width="155" height="40" as="geometry" />
        </mxCell>
        <mxCell id="yFJTro044zv2ZczdaH6C-36" value="共享存储" style="rounded=1;whiteSpace=wrap;html=1;" parent="1" vertex="1">
          <mxGeometry x="325" y="400" width="155" height="30" as="geometry" />
        </mxCell>
        <mxCell id="yFJTro044zv2ZczdaH6C-28" value="1" style="edgeStyle=orthogonalEdgeStyle;rounded=0;orthogonalLoop=1;jettySize=auto;html=1;exitX=0;exitY=0.5;exitDx=0;exitDy=0;entryX=0;entryY=0.25;entryDx=0;entryDy=0;" parent="1" source="yFJTro044zv2ZczdaH6C-36" target="yFJTro044zv2ZczdaH6C-12" edge="1">
          <mxGeometry relative="1" as="geometry">
            <Array as="points">
              <mxPoint x="250" y="415" />
              <mxPoint x="250" y="230" />
            </Array>
          </mxGeometry>
        </mxCell>
        <mxCell id="3CsVYzoKzDyqNIvDipbE-7" value="事务" style="rounded=1;whiteSpace=wrap;html=1;" vertex="1" parent="1">
          <mxGeometry x="325" y="170" width="150" height="40" as="geometry" />
        </mxCell>
      </root>
    </mxGraphModel>
  </diagram>
</mxfile>
